<svg xmlns="http://www.w3.org/2000/svg" xmlns:xlink="http://www.w3.org/1999/xlink" width="904.76" height="795.645" viewBox="0 0 904.76 795.645">
  <defs>
    <linearGradient id="linear-gradient" x1="0.487" y1="-0.392" x2="0.5" y2="1.254" gradientUnits="objectBoundingBox">
      <stop offset="0" stop-color="#e0e8ff" stop-opacity="0"/>
      <stop offset="0.845" stop-color="#c7d4ff" stop-opacity="0.847"/>
      <stop offset="1" stop-color="#c9d6fd"/>
    </linearGradient>
  </defs>
  <g id="Group_7400" data-name="Group 7400" transform="translate(-3635.4 -828.736)">
    <g id="Group_7373" data-name="Group 7373" transform="translate(3783 1030)">
      <ellipse id="Ellipse_95" data-name="Ellipse 95" cx="130.5" cy="130.5" rx="130.5" ry="130.5" transform="translate(263.909 0)" fill="#fedc3b"/>
      <path id="Path_4978" data-name="Path 4978" d="M106.968,96.944c34.474,23.974,61.112-9.933,79.076-.691,26.833,13.8,32.671,12.469,32.671,38.028,0,42.316-54.847,79.2-114.369,79.2S0,116.455,0,74.139C0,45.618,15.412,13.637,48.149.356,63.656-5.936,72.494,72.97,106.968,96.944Z" transform="matrix(0.545, -0.839, 0.839, 0.545, 257.311, 183.851)" fill="#ffa700"/>
      <path id="Path_4975" data-name="Path 4975" d="M1829.667,602A128,128,0,0,0,1702,474v0a128,128,0,0,0-256,0v0c-.111,0-.222,0-.333,0a128,128,0,1,0,0,256q1.671,0,3.333-.043V730h256v-.043A128,128,0,0,0,1829.667,602Z" transform="translate(-1309.758 -325)" fill="#f7f9ff"/>
      <path id="Path_4982" data-name="Path 4982" d="M6061.718-842a108.929,108.929,0,0,0-89.612-54.451,109.015,109.015,0,0,0-113.751,104.06" transform="translate(-5858.355 1046.963)" fill="none" stroke="#fff" stroke-linecap="round" stroke-linejoin="round" stroke-width="8" opacity="0.522"/>
      <path id="Union_21" data-name="Union 21" d="M94.242,0c52.048,0,94.242,40.965,94.242,91.5S146.29,183,94.242,183,0,142.032,0,91.5,42.194,0,94.242,0Z" transform="matrix(0.695, 0.719, -0.719, 0.695, 151.986, 163.728)" fill="url(#linear-gradient)"/>
      <path id="Union_22" data-name="Union 22" d="M245.011,289.677c-32.772,1.018-87.883-2.565-102.572-2.565-79.074,0-107.2-44.582-136.7-96.839S68.223,17.471,107.479.927c12.623-5.32,51.289,12.864,61.652,38.9,7.789,19.57,9.42,76.357,37.824,89.046,31.683,14.155,56.537,18.613,73.732,25.281,43.859,5.9,77.087,34.04,77.087,67.858,0,38.107-42.194,69-94.243,69A128.266,128.266,0,0,1,245.011,289.677Z" transform="translate(153.135 93.976)" fill="url(#linear-gradient)"/>
      <path id="Union_23" data-name="Union 23" d="M94.242,0c52.048,0,94.242,17.908,94.242,40S146.29,80,94.242,80,0,62.09,0,40,42.194,0,94.242,0Z" transform="translate(215.705 142.44) rotate(69)" fill="#fff" opacity="0.349"/>
    </g>
    <line id="Line_330" data-name="Line 330" transform="translate(4359.423 1170.966)" fill="none" stroke="#fdd93b" stroke-linecap="round" stroke-linejoin="round" stroke-width="20"/>
    <line id="Line_338" data-name="Line 338" transform="translate(4087.423 982.966)" fill="none" stroke="#fdd93b" stroke-linecap="round" stroke-linejoin="round" stroke-width="20"/>
    <line id="Line_339" data-name="Line 339" transform="translate(4359.173 1054.716)" fill="none" stroke="#fdd93b" stroke-linecap="round" stroke-linejoin="round" stroke-width="20"/>
    <line id="Line_342" data-name="Line 342" transform="translate(4207.324 941.815)" fill="none" stroke="#fdd93b" stroke-linecap="round" stroke-linejoin="round" stroke-width="20" opacity="0.3"/>
  </g>
</svg>
